<svg xmlns="http://www.w3.org/2000/svg" xmlns:xlink="http://www.w3.org/1999/xlink" width="140px" height="60px" viewBox="0 0 179.2962726787017 60.25616944175192">
    <g id="1e4f82d3-62b7-4c13-9283-bb7da14f35e5">
<rect style="stroke: rgb(193,193,193); stroke-width: 0; stroke-dasharray: none; stroke-linecap: butt; stroke-dashoffset: 0; stroke-linejoin: miter; stroke-miterlimit: 4; fill: none; fill-rule: nonzero; opacity: 1;" x="-89.64813633935086" y="-30.12808472087596" rx="0" ry="0" width="179.2962726787017" height="60.25616944175192" transform="matrix(1 0 0 1 89.648136 30.128085)"></rect>
</g>
<g id="ab8e7eea-8053-467b-9a3b-04c043417d5e">
<g style="">
		<g id="ab8e7eea-8053-467b-9a3b-04c043417d5e-child-0">
<path style="stroke: rgb(193,193,193); stroke-width: 0; stroke-dasharray: none; stroke-linecap: butt; stroke-dashoffset: 0; stroke-linejoin: miter; stroke-miterlimit: 4; fill: rgb(255,255,255); fill-rule: nonzero; opacity: 1;" transform="matrix(0.217517 0 0 0.216774 89.593207 15.474738) matrix(1 0 0 1 0 0)  translate(-455.321556, -152.548471)" d="M 67.53 221.73 C 55.36 218.91 49.10 215.26 45.81 213.27 C 41.97 210.94 42.26 211.57 53.03 214.11 C 63.76 216.64 90.41 217.14 101.50 215.07 C 134.84 208.84 159.70 191.34 191.36 151.84 C 202.03 138.51 204.51 136.00 206.97 136.00 C 207.41 136.00 210.77 138.06 214.44 140.57 C 222.73 146.24 230.11 150.00 232.97 150.00 C 235.23 150.00 242.97 142.30 253.07 130.00 C 258.72 123.13 275.99 103.24 282.17 96.50 C 284.19 94.30 287.25 90.70 288.97 88.50 C 292.91 83.47 294.84 81.99 297.44 82.03 C 299.37 82.05 319.28 98.95 340.42 118.50 C 352.38 129.55 366.55 140.85 369.34 141.55 C 373.40 142.57 377.87 139.40 390.03 126.88 C 396.37 120.34 402.29 115.00 403.19 115.00 C 404.09 115.00 407.30 116.91 410.32 119.25 C 416.75 124.23 434.05 138.76 435.50 140.41 C 437.55 142.73 463.68 164.72 468.50 168.17 C 478.35 175.23 487.01 178.58 498.00 179.60 C 504.92 180.24 523.96 177.79 557.00 172.00 C 574.25 168.98 589.36 166.46 608.00 163.49 C 655.65 155.91 711.69 153.68 748.00 157.91 C 790.73 162.90 841.26 175.22 863.00 185.94 C 871.08 189.93 868.40 189.47 843.50 182.58 C 793.10 168.62 721.09 160.47 679.00 163.94 C 671.03 164.60 659.10 165.55 652.50 166.04 C 633.72 167.44 603.47 171.54 582.50 175.52 C 569.54 177.98 557.01 180.07 528.50 184.50 C 488.10 190.78 478.50 187.86 444.09 158.79 C 438.37 153.96 433.08 150.00 432.35 150.00 C 431.62 150.00 429.55 152.24 427.76 154.97 C 425.97 157.71 423.95 160.16 423.29 160.43 C 421.69 161.06 419.62 158.00 411.53 143.00 C 401.38 124.20 403.22 124.66 389.81 137.48 C 383.59 143.43 378.37 148.83 378.21 149.48 C 377.84 150.99 390.08 161.23 402.10 169.46 C 412.31 176.45 438.58 190.00 441.90 190.00 C 442.51 190.00 443.00 190.45 443.00 191.00 C 443.00 193.30 408.66 191.50 395.50 188.51 C 389.34 187.11 373.38 181.61 370.00 179.72 C 361.98 175.24 355.57 168.44 341.05 149.00 C 335.06 140.98 331.39 137.07 329.81 137.02 C 329.42 137.01 327.21 139.02 324.89 141.50 C 322.57 143.98 320.30 146.00 319.85 146.00 C 319.40 146.00 317.97 144.31 316.68 142.25 C 314.64 138.98 312.47 134.42 303.98 115.50 C 298.11 102.40 294.72 96.00 293.65 96.00 C 292.98 96.00 285.70 103.98 277.47 113.73 C 264.05 129.62 256.89 137.86 230.15 168.18 C 225.94 172.95 221.74 176.88 220.82 176.93 C 218.55 177.03 215.41 172.43 209.81 160.76 C 207.08 155.09 204.51 151.00 203.67 151.00 C 202.87 151.00 199.65 154.18 196.51 158.08 C 166.85 194.78 148.11 208.99 116.50 218.71 C 109.60 220.83 106.05 222.56 90.97 222.89 C 76.50 223.20 74.14 223.27 67.53 221.73 z" stroke-linecap="round"></path>
</g>
</g>
</g>
<g id="dca44924-ac63-427f-912b-340cef44d61a">
<g style="">
		<g id="dca44924-ac63-427f-912b-340cef44d61a-child-0">
<path style="stroke: rgb(193,193,193); stroke-width: 0; stroke-dasharray: none; stroke-linecap: butt; stroke-dashoffset: 0; stroke-linejoin: miter; stroke-miterlimit: 4; fill: rgb(255,255,255); fill-rule: nonzero; opacity: 1;" transform="matrix(0.227197 0 0 0.226616 134.841059 42.126734) matrix(1 0 0 1 0 0)  translate(-531.684338, -242.501924)" d="M 418.00 317.90 C 393.65 314.90 373.95 311.29 355.36 306.43 C 336.66 301.54 330.30 298.46 344.00 300.93 C 383.79 308.10 399.50 309.93 428.00 310.68 C 481.22 312.09 514.78 304.51 542.42 284.85 C 547.33 281.36 558.47 271.52 567.19 263.00 L 583.05 247.50 L 583.03 237.00 C 582.97 212.79 589.23 196.47 604.10 182.06 C 619.78 166.86 646.32 161.03 672.85 166.96 C 683.08 169.25 687.77 171.24 688.72 173.71 C 689.31 175.26 683.61 187.21 679.97 192.03 C 678.30 194.25 678.10 194.28 674.87 192.78 C 670.23 190.63 668.51 190.19 660.75 189.10 C 639.56 186.13 620.99 197.96 616.89 217.06 C 615.39 224.07 616.03 224.07 622.07 221.06 C 630.10 217.06 648.86 213.85 659.49 215.04 C 659.75 215.07 659.99 215.10 660.24 215.12 C 669.49 216.13 673.61 217.06 673.61 217.06 C 673.61 217.06 694.32 221.93 705.21 226.50 C 712.78 229.67 727.46 235.87 726.70 236.63 C 726.50 236.84 723.67 236.08 720.41 234.94 C 713.51 232.54 692.73 227.51 685.50 226.50 C 676.95 225.31 657.63 225.83 647.90 227.52 C 635.52 229.67 625.67 233.62 613.12 241.50 C 599.33 250.15 593.29 255.22 575.70 272.88 C 548.75 299.95 523.75 309.17 512.54 312.69 C 499.98 316.64 481.76 320.10 455.03 320.32 C 439.08 320.46 422.12 318.41 418.00 317.90 z M 631.00 299.98 C 619.59 298.00 603.83 289.45 598.24 282.21 C 594.20 276.98 591.00 271.19 591.00 269.12 C 591.00 267.09 605.09 253.13 612.50 247.83 C 617.11 244.53 625.19 240.00 626.46 240.00 C 627.57 240.00 626.94 241.69 625.11 243.66 C 619.24 249.96 618.37 258.62 622.77 267.14 C 626.48 274.31 631.55 277.00 641.40 277.00 C 655.16 277.00 663.00 269.81 663.00 257.19 C 663.00 244.43 654.85 237.11 640.55 237.02 C 638.26 237.01 637.00 236.64 637.55 236.14 C 641.06 232.95 661.58 230.43 675.55 231.48 C 687.62 232.38 689.11 233.61 691.58 244.70 C 694.17 256.36 693.26 265.66 688.58 275.40 C 686.49 279.75 682.93 285.12 680.59 287.46 C 670.27 297.78 649.09 303.13 631.00 299.98 z M 489.00 295.46 C 485.98 294.63 480.24 292.41 476.25 290.52 C 467.62 286.45 467.55 286.14 472.60 275.25 C 474.58 270.99 476.60 266.49 477.08 265.25 C 478.25 262.23 480.03 262.41 485.54 266.13 C 495.93 273.14 515.95 276.89 527.81 274.05 C 540.44 271.02 546.33 258.45 540.14 247.73 C 537.20 242.63 531.89 241.00 518.25 241.00 C 511.58 241.00 504.98 240.56 503.57 240.02 C 501.06 239.07 501.00 238.82 501.02 229.77 L 501.03 220.50 L 505.75 215.50 C 508.34 212.75 512.57 208.02 515.14 205.00 C 517.72 201.98 521.44 197.73 523.41 195.57 C 525.39 193.41 527.00 191.05 527.00 190.33 C 527.00 189.30 521.33 188.98 499.75 188.77 L 472.50 188.50 L 471.96 179.50 C 471.66 174.55 471.79 169.71 472.24 168.75 C 473.01 167.12 476.26 167.00 519.43 167.00 C 572.03 167.00 567.00 166.01 567.00 176.39 C 567.00 183.50 565.90 185.42 556.08 195.50 C 552.86 198.80 547.26 205.08 543.62 209.47 C 537.56 216.75 535.77 219.97 537.75 220.02 C 538.16 220.03 541.49 220.67 545.14 221.44 C 561.08 224.82 570.90 234.81 571.26 248.02 C 571.46 255.02 571.57 254.86 555.59 268.65 C 542.88 279.60 532.87 286.43 521.00 292.25 C 513.21 296.08 511.63 296.64 503.38 296.89 C 497.60 297.07 492.53 296.44 489.00 295.46 z" stroke-linecap="round"></path>
</g>
</g>
</g>
<g id="58d84e76-776b-4cab-948f-b57eae01462d">
<g style="">
		<g id="58d84e76-776b-4cab-948f-b57eae01462d-child-0">
<path style="stroke: none; stroke-width: 0; stroke-dasharray: none; stroke-linecap: butt; stroke-dashoffset: 0; stroke-linejoin: miter; stroke-miterlimit: 4; fill: rgb(255,255,255); fill-rule: nonzero; opacity: 1;" d="M51.35203,16.78726v-2.62492h2.62492v2.62492z" stroke-linecap="round"></path>
</g>
</g>
</g>
<g id="c41579d7-891b-4523-92f6-cd2fcb40a142">
<g style="">
		<g id="c41579d7-891b-4523-92f6-cd2fcb40a142-child-0">
<path style="stroke: none; stroke-width: 0; stroke-dasharray: none; stroke-linecap: butt; stroke-dashoffset: 0; stroke-linejoin: miter; stroke-miterlimit: 4; fill: rgb(255,255,255); fill-rule: nonzero; opacity: 1;" d="M54.8669,20.34776v-2.62492h2.62492v2.62492z" stroke-linecap="round"></path>
</g>
</g>
</g>
<g id="d2353539-0e51-4c4d-b205-eae628c60e53">
<g style="">
		<g id="d2353539-0e51-4c4d-b205-eae628c60e53-child-0">
<path style="stroke: none; stroke-width: 0; stroke-dasharray: none; stroke-linecap: butt; stroke-dashoffset: 0; stroke-linejoin: miter; stroke-miterlimit: 4; fill: rgb(255,255,255); fill-rule: nonzero; opacity: 1;" d="M51.35203,20.34776v-2.62492h2.62492v2.62492z" stroke-linecap="round"></path>
</g>
</g>
</g>
<g id="fb93c74e-cad1-466c-a498-6b9fefee37dc">
<g style="">
		<g id="fb93c74e-cad1-466c-a498-6b9fefee37dc-child-0">
<path style="stroke: none; stroke-width: 0; stroke-dasharray: none; stroke-linecap: butt; stroke-dashoffset: 0; stroke-linejoin: miter; stroke-miterlimit: 4; fill: rgb(255,255,255); fill-rule: nonzero; opacity: 1;" d="M54.8669,16.78726v-2.62492h2.62492v2.62492z" stroke-linecap="round"></path>
</g>
</g>
</g>
<g style="" id="d5534f5a-29c5-4f1f-9b81-5fe7a6c3dd9a">
<g style=""><path d="M-173.43895 -69.34954L-133.45035 -69.34954L-85.46402 58.42800L-120.98878 58.42800L-128.61452 36.29477L-179.57674 36.29477L-187.20247 58.42800L-221.42528 58.42800ZM-136.79823 11.37164L-145.91191 -15.59742C-147.77185 -20.99123 -151.49172 -33.08081 -153.53765 -40.33455L-154.83960 -40.33455C-156.69954 -33.26680 -160.23341 -22.29318 -162.27934 -15.59742L-171.57902 11.37164Z" fill="rgb(255, 255, 255)" transform="matrix(0.221492 0 0 0.221492 66.97976 39.402905) translate(0 11.398087049684563)"></path><path d="M-71.32851 -39.59058L-46.21939 -39.59058L-43.98747 -24.52511L-42.68551 -24.52511C-38.59365 -34.75475 -30.40994 -42.00850 -18.69235 -42.00850C-14.22850 -42.00850 -10.13665 -40.89253 -8.46271 -39.96257L-8.46271 -13.36549L-18.13437 -13.36549C-33.94382 -13.36549 -40.82558 -4.62380 -40.82558 11.74363L-40.82558 58.42800L-71.32851 58.42800Z" fill="rgb(255, 255, 255)" transform="matrix(0.221492 0 0 0.221492 66.97976 39.402905) translate(0 11.398087049684563)"></path><path d="M51.61320 60.65993C18.13437 60.65993 -1.02296 44.66448 -1.02296 9.32571C-1.02296 -25.26908 17.94837 -41.82250 50.49724 -41.82250C82.48812 -41.82250 100.15751 -26.19905 100.15751 8.95373L100.15751 15.46350L29.85196 15.46350C30.03795 31.08696 35.98975 39.64266 51.42721 39.64266C63.88877 39.64266 70.58454 33.50487 70.58454 23.46122L100.15751 23.46122C100.15751 47.45439 81.93014 60.65993 51.61320 60.65993ZM69.09659 -1.46191C69.09659 -14.48146 62.21483 -20.80523 51.24121 -20.80523C37.84968 -20.80523 31.52590 -14.10947 30.03795 -1.46191Z" fill="rgb(255, 255, 255)" transform="matrix(0.221492 0 0 0.221492 66.97976 39.402905) translate(0 11.398087049684563)"></path><path d="M147.21387 60.65993C131.03243 60.65993 114.29302 55.08012 114.29302 33.13289C114.29302 5.04786 139.21615 -1.46191 179.01876 -1.46191L179.01876 -7.59970C179.01876 -15.78341 174.36892 -20.80523 163.76729 -20.80523C153.90964 -20.80523 147.95784 -17.08536 147.95784 -11.31957L147.95784 -9.64562L118.19888 -9.64562C118.01289 -10.76158 118.01289 -11.69155 118.01289 -12.99351C118.01289 -30.47690 134.93830 -41.82250 163.95329 -41.82250C190.73635 -41.82250 209.52170 -32.33683 209.52170 -10.20360L209.52170 31.64494C209.52170 35.92279 211.93961 38.52670 215.65948 38.52670L221.98326 38.52670L221.98326 57.31204C219.19336 58.61400 213.24157 60.65993 205.05785 60.65993C192.59629 60.65993 184.22658 55.63810 181.99466 47.82637L180.69270 47.82637C173.43895 55.45211 163.20931 60.65993 147.21387 60.65993ZM158.55947 39.64266C170.46306 39.64266 179.01876 32.38891 179.01876 21.78728L179.01876 15.27751C157.62951 15.27751 144.98195 19.55536 144.98195 29.41301C144.98195 36.85276 150.56175 39.64266 158.55947 39.64266Z" fill="rgb(255, 255, 255)" transform="matrix(0.221492 0 0 0.221492 66.97976 39.402905) translate(0 11.398087049684563)"></path></g></g>

  </svg>